<?xml version="1.0" encoding="utf-8"?>
<!-- Generator: Adobe Illustrator 16.0.0, SVG Export Plug-In . SVG Version: 6.00 Build 0)  -->
<!DOCTYPE svg PUBLIC "-//W3C//DTD SVG 1.0//EN" "http://www.w3.org/TR/2001/REC-SVG-20010904/DTD/svg10.dtd">
<svg version="1.0" id="Layer_1" xmlns="http://www.w3.org/2000/svg" xmlns:xlink="http://www.w3.org/1999/xlink" x="0px" y="0px"
	 width="100px" height="100px" viewBox="0 0 100 100" enable-background="new 0 0 100 100" xml:space="preserve">
<path fill="#020202" d="M21.667,10h-5C13,10,10,13.001,10,16.667v10c0,3.665,3,6.666,6.667,6.666h5c3.665,0,6.666-3.001,6.666-6.666
	v-10C28.333,13.001,25.332,10,21.667,10z M21.667,26.667h-5v-10h5V26.667z"/>
<path fill="#020202" d="M64.167,10h-5c-3.666,0-6.667,3.001-6.667,6.667v10c0,3.665,3.001,6.666,6.667,6.666h5
	c3.665,0,6.666-3.001,6.666-6.666v-10C70.833,13.001,67.832,10,64.167,10z M64.167,26.667h-5v-10h5V26.667z"/>
<path fill="#020202" d="M40.833,38.333h-5c-3.665,0-6.666,3.001-6.666,6.667v10c0,3.666,3.001,6.667,6.666,6.667h5
	c3.666,0,6.667-3.001,6.667-6.667V45C47.5,41.333,44.499,38.333,40.833,38.333z M40.833,55h-5V45h5V55z"/>
<path fill="#020202" d="M64.167,38.333h-5c-3.666,0-6.667,3.001-6.667,6.667v10c0,3.666,3.001,6.667,6.667,6.667h5
	c3.665,0,6.666-3.001,6.666-6.667V45C70.833,41.333,67.832,38.333,64.167,38.333z M64.167,55h-5V45h5V55z"/>
<path fill="#020202" d="M21.667,66.667h-5C13,66.667,10,69.668,10,73.333v10C10,86.999,13,90,16.667,90h5
	c3.665,0,6.666-3.001,6.666-6.667v-10C28.333,69.668,25.332,66.667,21.667,66.667z M21.667,83.333h-5v-10h5V83.333z"/>
<path fill="#020202" d="M83.333,66.667h-5c-3.665,0-6.666,3.001-6.666,6.666v10c0,3.666,3.001,6.667,6.666,6.667h5
	C86.999,90,90,86.999,90,83.333v-10C90,69.668,86.999,66.667,83.333,66.667z M83.333,83.333h-5v-10h5V83.333z"/>
<polygon fill="#00B8D4" points="40.833,10 33.336,17.5 38.05,22.213 40.833,19.43 40.833,33.333 47.5,33.333 47.5,10 "/>
<polygon fill="#00B8D4" points="17.5,38.333 10.003,45.833 14.716,50.547 17.5,47.765 17.5,61.667 24.167,61.667 24.167,38.333 "/>
<polygon fill="#00B8D4" points="40.833,66.667 33.336,74.167 38.05,78.88 40.833,76.098 40.833,90 47.5,90 47.5,66.667 "/>
<polygon fill="#00B8D4" points="60,66.667 52.503,74.167 57.217,78.88 60,76.098 60,90 66.667,90 66.667,66.667 "/>
<polygon fill="#00B8D4" points="83.333,38.333 75.837,45.833 80.55,50.547 83.333,47.765 83.333,61.667 90,61.667 90,38.333 "/>
<polygon fill="#00B8D4" points="83.333,10 75.837,17.5 80.55,22.213 83.333,19.43 83.333,33.333 90,33.333 90,10 "/>
</svg>
