<svg xmlns="http://www.w3.org/2000/svg" width="36.932" height="48" viewBox="0 0 36.932 48">
  <g>
    <polygon points="7.188 48 18.466 48 29.743 48 31.893 44.674 5.039 44.674 7.188 48" fill="#525c6b"/>
    <polygon points="5.606 43.692 5.039 44.674 31.893 44.674 31.326 43.692 5.606 43.692" fill="#2ba0bf"/>
    <polygon points="30.46 42.192 28.164 38.209 18.466 38.209 8.768 38.209 6.471 42.192 20.845 42.192 30.46 42.192" fill="#2ba0bf"/>
    <polygon points="30.46 42.192 20.845 42.192 6.471 42.192 5.606 43.692 31.326 43.692 30.46 42.192" fill="#59c5ef"/>
    <polygon points="22.279 31.493 18.466 31.493 14.652 31.493 12.147 40.201 24.784 40.201 22.279 31.493" fill="#525c6b"/>
    <path d="M18.466,36.181A17.716,17.716,0,1,1,36.182,18.465,17.735,17.735,0,0,1,18.466,36.181Z" fill="#e2e2e2"/>
    <path d="M18.466,0A18.466,18.466,0,1,0,36.932,18.466,18.467,18.467,0,0,0,18.466,0Zm0,35.431A16.966,16.966,0,1,1,35.432,18.465,16.985,16.985,0,0,1,18.466,35.431Z" fill="#7a8e9b"/>
    <path d="M33,18.466H21.145L23.576,14.9A7.231,7.231,0,0,0,22.3,5.329L19.9,3.274a.868.868,0,0,0-1.432.66V15.787L14.9,13.356A7.231,7.231,0,0,0,5.329,14.63l-2.055,2.4a.868.868,0,0,0,.66,1.431H15.787l-2.431,3.563A7.231,7.231,0,0,0,14.631,31.6l2.4,2.056A.868.868,0,0,0,18.466,33V21.145l3.563,2.43A7.23,7.23,0,0,0,31.6,22.3l2.055-2.4A.869.869,0,0,0,33,18.466Z" fill="#2ba0bf"/>
    <path d="M18.466,21.565a3.1,3.1,0,1,1,3.1-3.1A3.1,3.1,0,0,1,18.466,21.565Z" fill="#59c5ef"/>
    <path d="M18.466,14.615a3.851,3.851,0,1,0,3.85,3.851A3.851,3.851,0,0,0,18.466,14.615Zm0,6.2a2.351,2.351,0,1,1,2.35-2.35A2.353,2.353,0,0,1,18.466,20.815Z" fill="#525c6b"/>
  </g>
</svg>
