<svg xmlns="http://www.w3.org/2000/svg" viewBox="0 0 48 48">
    <defs>
        <style>.cls-1{fill:#42a5f5;}.cls-2{fill:#424242;}</style>
    </defs>
    <title>Computer 404 Error</title>
    <g id="Computer_404_Error" data-name="Computer 404 Error">
        <path class="cls-1" d="M24,12a3,3,0,0,0-3,3v4a3,3,0,0,0,6,0V15A3,3,0,0,0,24,12Zm1,7a1,1,0,0,1-2,0V15a1,1,0,0,1,2,0Z" />
        <path class="cls-1" d="M18,12a1,1,0,0,0-1,1v3H15V13a1,1,0,0,0-2,0v4a1,1,0,0,0,1,1h3v3a1,1,0,0,0,2,0V13A1,1,0,0,0,18,12Z" />
        <path class="cls-1" d="M34,12a1,1,0,0,0-1,1v3H31V13a1,1,0,0,0-2,0v4a1,1,0,0,0,1,1h3v3a1,1,0,0,0,2,0V13A1,1,0,0,0,34,12Z" />
        <path class="cls-2" d="M40,10V25a1,1,0,0,1-1,1H9a1,1,0,0,1-1-1V10H6V25a3,3,0,0,0,3,3H39a3,3,0,0,0,3-3V10Z" />
        <path class="cls-2" d="M45,5H44V7h1a1,1,0,0,1,1,1V31H2V8A1,1,0,0,1,3,7H4V5H3A3,3,0,0,0,0,8V38a3,3,0,0,0,3,3H17.85l-.72,5H15a1,1,0,0,0,0,2H33a1,1,0,0,0,0-2H30.87l-.72-5H45a3,3,0,0,0,3-3V8A3,3,0,0,0,45,5ZM19.15,46l.72-5h8.26l.72,5ZM46,38a1,1,0,0,1-1,1H3a1,1,0,0,1-1-1V33H46Z" />
        <path class="cls-1" d="M23.62,36.92a.94.94,0,0,0,.76,0,1.15,1.15,0,0,0,.33-.21l.12-.15a.76.76,0,0,0,.09-.18A.64.64,0,0,0,25,36.2a1.5,1.5,0,0,0,0-.2,1.05,1.05,0,0,0-.29-.71,1.15,1.15,0,0,0-.33-.21,1,1,0,0,0-.76,0,1.15,1.15,0,0,0-.33.21,1,1,0,0,0,0,1.42A1.15,1.15,0,0,0,23.62,36.92Z" />
        <path class="cls-1" d="M39,0H9A3,3,0,0,0,6,3V8H42V3A3,3,0,0,0,39,0ZM11,5a1,1,0,1,1,1-1A1,1,0,0,1,11,5Zm4,0a1,1,0,1,1,1-1A1,1,0,0,1,15,5Zm4,0a1,1,0,1,1,1-1A1,1,0,0,1,19,5ZM37,5H29a1,1,0,0,1,0-2h8a1,1,0,0,1,0,2Z" />
    </g>
</svg>