<svg xmlns="http://www.w3.org/2000/svg" viewBox="0 0 48 48"><defs><style>.cls-1{fill:#5b9ad8;}.cls-2{fill:#6fabe6;}.cls-3{fill:#edb996;}.cls-4{fill:#f6ccaf;}.cls-5{fill:#82bcf4;}.cls-6{fill:#dad7e5;}.cls-7{fill:#edebf2;}.cls-8{fill:#ffdec7;}.cls-9{fill:#be927c;}.cls-10{fill:#a87e6b;}.cls-11{fill:#374f68;}</style></defs><title>Web Programmer</title><g id="Web_Programmer" data-name="Web Programmer"><path class="cls-1" d="M22,27H18l-5.88-4.9,7-2.76Z"/><path class="cls-2" d="M22,27c-2.52,0-3.31-1.37-7.54-5.82l4.67-1.84Z"/><path class="cls-2" d="M18,27H12V43H11a4,4,0,0,0,.54,2c-5.28,0-7.19.41-9.08-1.46A5,5,0,0,1,1,40L3.48,29.27A8.14,8.14,0,0,1,8,23.73l4.16-1.63Z"/><path class="cls-3" d="M26,27H22c-3.19-8.51-3-7.62-2.62-7.76a6.94,6.94,0,0,0,9.24,0C29,19.38,29.29,18.23,26,27Z"/><path class="cls-4" d="M27.57,22.82,26,27H23.25L22,23.61a1,1,0,0,1,1.31-1.28A6.49,6.49,0,0,0,27.57,22.82Z"/><path class="cls-1" d="M35.88,22.1,30,27H26l2.87-7.66Z"/><path class="cls-2" d="M35.88,22.1C30.19,26.84,29.9,27,30,27a1.39,1.39,0,0,1-1.3-1.87L30.61,20Z"/><path class="cls-2" d="M47,40a5,5,0,0,1-1.46,3.54C43.66,45.4,42,45,36.46,45A4,4,0,0,0,37,43H36V27H30l5.88-4.9,3.3,1.29a8.13,8.13,0,0,1,5.34,5.88Z"/><path class="cls-5" d="M47,40a4.94,4.94,0,0,1-1,3H36V27H30l5.88-4.9,3.3,1.29a8.13,8.13,0,0,1,5.34,5.88Z"/><path class="cls-5" d="M12.12,22.1,18,27H12c0,16.82-.1,16,0,16a6,6,0,0,1-5.94-6.92L8,23.73Z"/><rect class="cls-6" x="12" y="27" width="24" height="16"/><path class="cls-7" d="M36,27V41H28A14,14,0,0,1,14,27Z"/><path class="cls-6" d="M37,43a4,4,0,0,1-4,4H15a4,4,0,0,1-4-4Z"/><path class="cls-7" d="M37,43a3.9,3.9,0,0,1-.36,1.64c-1.12.51-.27.36-19.64.36a4,4,0,0,1-3.46-2Z"/><path class="cls-4" d="M31,11c0,2.88.26,4.73-1.16,6.84A7,7,0,0,1,19.05,19C16.68,16.58,17,14.2,17,11c3.12,0,5.8.28,8.93-2.07A6.86,6.86,0,0,0,31,11Z"/><path class="cls-8" d="M31,11c0,2.88.26,4.73-1.16,6.84A7,7,0,0,1,19,12V11a10.47,10.47,0,0,0,6.93-2.07A6.85,6.85,0,0,0,31,11Z"/><path class="cls-9" d="M33,5.5V9a2,2,0,0,1-2,2,6.85,6.85,0,0,1-5.07-2.07A10.27,10.27,0,0,1,19.76,11c-3.07,0-3.47.13-4.17-.59S15,9.47,15,2.5A1.5,1.5,0,0,1,16.5,1h12A1.5,1.5,0,0,1,30,2.5,1.5,1.5,0,0,0,31.5,4,1.5,1.5,0,0,1,33,5.5Z"/><path class="cls-10" d="M27.88,7c-3.15,2.33-6,2-8.88,2a2,2,0,0,1-2-2V1h-.5A1.5,1.5,0,0,0,15,2.5V9a2,2,0,0,0,2,2c3.12,0,5.8.28,8.93-2.07A6.85,6.85,0,0,0,30.83,11,2,2,0,0,0,33,9C29.4,9,28.05,6.84,27.88,7Z"/><path class="cls-1" d="M12,36v2H9a1,1,0,0,1,0-2Z"/><path class="cls-1" d="M39,38H36V36h3A1,1,0,0,1,39,38Z"/><path class="cls-11" d="M20,38c-.54,0-.57-.15-2.71-2.29a1,1,0,0,1,0-1.42l2-2a1,1,0,0,1,1.42,1.42L19.41,35l1.3,1.29A1,1,0,0,1,20,38Z"/><path class="cls-11" d="M28,38a1,1,0,0,1-.71-1.71L28.59,35l-1.3-1.29a1,1,0,0,1,1.42-1.42l2,2a1,1,0,0,1,0,1.42C28.53,37.89,28.54,38,28,38Z"/><path class="cls-11" d="M23,39a1,1,0,0,1-.95-1.32l2-6a1,1,0,0,1,1.9.64C23.82,38.71,24,39,23,39Z"/></g></svg>